<svg id="9616630c-2186-4ad1-91b9-892703fad41e" data-name="Layer 1" xmlns="http://www.w3.org/2000/svg" width="230" height="60.46" viewBox="0 0 230 60.46">
  <defs>
    <style>
      .\36 8b9f5ac-7e7c-4b28-90b1-5f704790fb2f {
        fill: #ebeced;
      }

      .\34 c9fb7eb-8602-4f48-9ed6-0a7db513bae8, .\36 8b9f5ac-7e7c-4b28-90b1-5f704790fb2f, .a91c7a73-4244-41fc-b895-1c010c8b9ef3, .d16e61d6-09c3-4537-b0f4-bacc52b86d02, .d41f17d6-0889-4833-a5a0-206b0cd012cd, .e0de166b-5792-40d0-8220-a6ee83fcac0e {
        fill-rule: evenodd;
      }

      .\31 4e17320-0eba-418a-9b07-9319e9e46645, .d16e61d6-09c3-4537-b0f4-bacc52b86d02 {
        fill: #99bd8c;
      }

      .\38 3fc28ab-ce38-4621-b23a-601f062621d6 {
        fill: #4d362a;
      }

      .e0de166b-5792-40d0-8220-a6ee83fcac0e {
        fill: #f4efc9;
      }

      .a91c7a73-4244-41fc-b895-1c010c8b9ef3 {
        fill: #fae90f;
      }

      .d41f17d6-0889-4833-a5a0-206b0cd012cd {
        fill: #e21323;
      }

      .\34 c9fb7eb-8602-4f48-9ed6-0a7db513bae8 {
        fill: #ef7e16;
      }
    </style>
  </defs>
  <title>login-logo-amodei</title>
  <g>
    <g>
      <path class="68b9f5ac-7e7c-4b28-90b1-5f704790fb2f" d="M229.88,42.08a.49.49,0,0,0-.33-.09h-2.31a5.55,5.55,0,0,1-1.48-.14,1.41,1.41,0,0,1-.88-.58,2.47,2.47,0,0,1-.28-1.3c0-.1,0-.41,0-.95s0-1.21,0-2,0-1.72,0-2.68,0-1.93,0-2.9,0-1.85,0-2.67,0-1.49,0-2,0-.84,0-.93V21.43c0-.11,0-.42,0-.94s0-1.18,0-2,0-1.65,0-2.58,0-1.86,0-2.79,0-1.78,0-2.56,0-1.44,0-1.94,0-.81,0-.9a1.38,1.38,0,0,1,.56-1.21,2.35,2.35,0,0,1,1.41-.37h2.65a.49.49,0,0,0,.33-.09.35.35,0,0,0,.12-.3V4.37a.41.41,0,0,0-.09-.28.36.36,0,0,0-.3-.11c-5.51,0-10.81.15-16.39,0a.46.46,0,0,0-.28.08.3.3,0,0,0-.11.25V5.84a.28.28,0,0,0,.12.25.55.55,0,0,0,.33.08h3.27a5.56,5.56,0,0,1,1.66.2,1.54,1.54,0,0,1,.85.62,2.42,2.42,0,0,1,.3,1.1c0,.15,0,.53,0,1.11s0,1.31,0,2.17,0,1.75,0,2.7,0,1.86,0,2.74,0,1.64,0,2.29,0,1.08,0,1.32v3.94c0,.43,0,1,0,1.78s0,1.6,0,2.54,0,1.93,0,3,0,2,0,3,0,1.88-.06,2.68,0,1.49,0,2,0,.86-.06,1a1.72,1.72,0,0,1-1.43,1.54,5.36,5.36,0,0,1-1.11.09h-3.15a.55.55,0,0,0-.33.08.28.28,0,0,0-.12.25v1.52a.28.28,0,0,0,.12.25.55.55,0,0,0,.33.08h16.22q.51,0,.51-.34V42.38A.34.34,0,0,0,229.88,42.08Z" transform="translate(0 -0.27)"/>
      <path class="68b9f5ac-7e7c-4b28-90b1-5f704790fb2f" d="M113.16,4.13A23,23,0,0,0,106.66,6h0A21.17,21.17,0,0,0,94,27.8c1.48,11.52,12.46,19.6,24.52,18.05s20.63-12.15,19.15-23.67S125.22,2.58,113.16,4.13Z" transform="translate(0 -0.27)"/>
      <path class="68b9f5ac-7e7c-4b28-90b1-5f704790fb2f" d="M173.88,15.33a16.46,16.46,0,0,0-3-3.36,16.92,16.92,0,0,0-3.6-2.36,19.92,19.92,0,0,0-4-1.42,29.23,29.23,0,0,0-4.39-.69c-1.53-.13-3.12-.19-4.79-.18H138.85a.57.57,0,0,0-.26.05.21.21,0,0,0-.1.21V9c0,.15,0,.25.11.29a.5.5,0,0,0,.3.07h2.84a5,5,0,0,1,1.16.09,1.32,1.32,0,0,1,.72.42,1.81,1.81,0,0,1,.34.93c0,.15,0,.46.05.92s0,1,.06,1.64,0,1.33.06,2,0,1.4,0,2.06,0,1.26,0,1.77,0,.88,0,1.11V24.2c0,.69,0,1.54,0,2.56s0,2.13,0,3.32,0,2.38-.06,3.58S144,36,144,37s-.05,1.89-.09,2.59-.05,1.14-.08,1.33a1.28,1.28,0,0,1-.5.93,1.89,1.89,0,0,1-1.15.31h-3.46a.5.5,0,0,0-.3.08.26.26,0,0,0-.11.23v1.34a.31.31,0,0,0,.36.36h16.78c1,0,2.17,0,3.49-.09a24.28,24.28,0,0,0,4.16-.6,18,18,0,0,0,4.36-1.62,15.11,15.11,0,0,0,4-3.17,20.65,20.65,0,0,0,2.84-3.85,16.86,16.86,0,0,0,1.7-4.39,23.05,23.05,0,0,0,.57-5.33,19.35,19.35,0,0,0-.74-5.43A15.78,15.78,0,0,0,173.88,15.33Zm-3.05,14.51a20,20,0,0,1-1.33,4,15.47,15.47,0,0,1-1.94,3.16,13.67,13.67,0,0,1-3.12,2.92,14.87,14.87,0,0,1-4.1,1.94,16.66,16.66,0,0,1-4.91.71,13.66,13.66,0,0,1-2.38-.19,7.44,7.44,0,0,1-1.88-.55,3.24,3.24,0,0,1-1.21-.91,5.47,5.47,0,0,1-.69-1.45,5,5,0,0,1-.19-1.45c0-.54,0-1.21,0-2s0-1.63,0-2.55,0-1.82,0-2.72,0-1.74,0-2.51,0-1.41,0-1.92V18.5c0-.79,0-1.61,0-2.46s0-1.63,0-2.37,0-1.32,0-1.76a4.76,4.76,0,0,1,.24-1.46,1.8,1.8,0,0,1,.74-1,3.44,3.44,0,0,1,1.2-.36A12.83,12.83,0,0,1,152.75,9c.52,0,1,0,1.38,0a21.91,21.91,0,0,1,5.31.63,17,17,0,0,1,4.37,1.74,13.27,13.27,0,0,1,3.28,2.59,14.28,14.28,0,0,1,1.71,2.37,19.74,19.74,0,0,1,1.33,2.86,19.42,19.42,0,0,1,.88,3.09,16,16,0,0,1,.31,3.1A21.15,21.15,0,0,1,170.83,29.83Z" transform="translate(0 -0.27)"/>
      <path class="68b9f5ac-7e7c-4b28-90b1-5f704790fb2f" d="M209.83,35.07l-.83-.46a.35.35,0,0,0-.37,0,.94.94,0,0,0-.25.31c-.15.24-.37.57-.66,1s-.6.83-1,1.3-.71.92-1.06,1.36l-.94,1.14a7.06,7.06,0,0,1-.61.65,6.49,6.49,0,0,1-1.57.95,12,12,0,0,1-1.67.6,9.56,9.56,0,0,1-1.26.26c-.28,0-.63.05-1,.07l-1.31.05-1.26,0h-.93a19.82,19.82,0,0,1-2-.1c-.68-.07-1.28-.15-1.82-.26a3.77,3.77,0,0,1-1.46-.58,3.05,3.05,0,0,1-1-1.27,5.44,5.44,0,0,1-.43-2.17c0-.22,0-.57,0-1s0-1,0-1.7,0-1.33,0-2.06,0-1.44,0-2.12,0-1.32,0-1.89v-3.2h1.08l1.73,0q1,0,2,.08c.7,0,1.35.08,2,.15a2.42,2.42,0,0,1,1.5.65,3.13,3.13,0,0,1,.72,1.36c.05.2.12.44.19.73s.15.59.22.89.12.57.15.8A.85.85,0,0,0,198,31a.27.27,0,0,0,.28.08l1.14-.15a.36.36,0,0,0,.31-.41q-.05-.57-.13-1.47c0-.61-.09-1.26-.12-1.94s-.06-1.34-.06-2v-.83c0-.39,0-.83,0-1.32s0-1,0-1.5,0-1,0-1.35a6.75,6.75,0,0,1,.08-.87.36.36,0,0,0,0-.28.32.32,0,0,0-.27-.13L198,18.78a.37.37,0,0,0-.26.09.33.33,0,0,0-.1.28,12.39,12.39,0,0,1-.17,1.44,9.8,9.8,0,0,1-.24,1.08,5.13,5.13,0,0,1-.49,1.24,1.78,1.78,0,0,1-.71.68,4.11,4.11,0,0,1-1.18.34c-.14,0-.43,0-.88.07l-1.58.09-1.79.08L189,24.2l-.78,0V9.16l9.19.21a6.72,6.72,0,0,1,2.07.44,9.56,9.56,0,0,1,1.85.95,6.9,6.9,0,0,1,1,.89c.4.43.85.91,1.32,1.45s.91,1.08,1.33,1.59l1,1.32c.28.36.43.57.46.62a.36.36,0,0,0,.16.15.26.26,0,0,0,.25,0l.77-.41a.28.28,0,0,0,.17-.19.62.62,0,0,0,0-.28c0-.09-.1-.34-.23-.74s-.28-.89-.47-1.47l-.59-1.85L206,10c-.19-.59-.35-1.11-.48-1.53s-.22-.7-.26-.83a.41.41,0,0,0-.13-.19.49.49,0,0,0-.28-.07h-26a.44.44,0,0,0-.28.07c-.17.14-.09,1.27-.09,1.53s0,.25.11.29a.51.51,0,0,0,.3.07h1.86a5,5,0,0,1,1.49.15,1.27,1.27,0,0,1,.79.6,3.18,3.18,0,0,1,.35,1.26c0,.11,0,.43,0,1s0,1.19,0,2,0,1.69,0,2.64,0,1.92,0,2.89,0,1.9,0,2.77V39.87a4.89,4.89,0,0,1-.14,1.44,1,1,0,0,1-.71.67,5.9,5.9,0,0,1-1.73.16h-2.06a1.12,1.12,0,0,0-.4.05c-.23.1-.12,1.34-.12,1.6a.31.31,0,0,0,.12.28.55.55,0,0,0,.34.09h27.26a1.2,1.2,0,0,0,.74-.21,1.1,1.1,0,0,0,.4-.56l2.74-7.59a1.13,1.13,0,0,0,.1-.46A.34.34,0,0,0,209.83,35.07Z" transform="translate(0 -0.27)"/>
      <path class="68b9f5ac-7e7c-4b28-90b1-5f704790fb2f" d="M43.32,41.9H41.47a4,4,0,0,1-2.08-.57,4.7,4.7,0,0,1-1.75-2c-.13-.28-.34-.78-.61-1.48s-.58-1.56-.94-2.54-.74-2.06-1.14-3.19-.79-2.27-1.17-3.42-.74-2.22-1.07-3.23-.6-1.9-.82-2.64-.44-1.44-.78-2.47-.72-2.19-1.15-3.47-.87-2.6-1.33-4L27.29,9c-.43-1.28-.82-2.43-1.15-3.45s-.59-1.85-.78-2.45a3.43,3.43,0,0,0-.24-.71.41.41,0,0,0-.38-.24.57.57,0,0,0-.37.15L24,2.65a5,5,0,0,1-.77.72A12.78,12.78,0,0,1,22,4.23,11.84,11.84,0,0,1,20.64,5a6.31,6.31,0,0,1-1.3.47.78.78,0,0,0-.4.23.43.43,0,0,0-.1.27.79.79,0,0,0,.13.37,3.67,3.67,0,0,0,.26.37,1.19,1.19,0,0,1,.2.65,2.21,2.21,0,0,1-.08.66c-.06.22-.11.42-.18.61s-.23.64-.44,1.24-.48,1.31-.8,2.16l-1,2.69c-.37,1-.71,1.91-1.07,2.86l-1,2.65-.76,2.06c-.21.55-.35.92-.4,1.09-.27.78-.61,1.69-1,2.72l-1.23,3.27-1.3,3.37c-.43,1.12-.84,2.14-1.2,3.07L8,38.14c-.24.62-.4,1-.48,1.17a7.29,7.29,0,0,1-.82,1.47,2.72,2.72,0,0,1-1,.84,3.31,3.31,0,0,1-1.43.27h-2A.52.52,0,0,0,2,42a.37.37,0,0,0-.14.3v1.35A.48.48,0,0,0,2,44a.35.35,0,0,0,.3.1c4.24,0,8.26-.1,12.56,0a.45.45,0,0,0,.33-.1.52.52,0,0,0,.12-.4V42.3a.34.34,0,0,0-.13-.3.76.76,0,0,0-.43-.09H12.07a2.64,2.64,0,0,1-1.42-.32,1,1,0,0,1-.5-.92,4,4,0,0,1,.07-.57c0-.23.08-.46.1-.67s.17-.59.35-1.14l.68-2c.26-.76.54-1.55.84-2.38s.58-1.63.86-2.4l.74-2,.47-1.23H28.12c.16.46.38,1.09.63,1.87l.84,2.56c.29.94.58,1.87.86,2.79S31,37.26,31.2,38s.38,1.33.47,1.75a1.89,1.89,0,0,1-.1,1.66A2,2,0,0,1,30,41.9H28.57a.68.68,0,0,0-.38.08.34.34,0,0,0-.13.32v1.3a.5.5,0,0,0,.12.38.42.42,0,0,0,.33.13h14.7a.76.76,0,0,0,.43-.09.34.34,0,0,0,.13-.3V42.3a.41.41,0,0,0-.09-.28A.48.48,0,0,0,43.32,41.9ZM15,26.25c.07-.22.21-.66.44-1.32l.87-2.45c.36-1,.73-2,1.14-3.11l1.21-3.29,1.12-3c.34-.93.63-1.69.84-2.29L21,9.69a2.48,2.48,0,0,1,.29-.59.47.47,0,0,1,.33-.25c.08,0,.16.09.23.24l.23.54c0,.13.17.5.36,1.1L23.19,13l1,3c.35,1.08.7,2.17,1.05,3.27s.69,2.13,1,3.1L27,24.84c.22.69.37,1.15.44,1.41Z" transform="translate(0 -0.27)"/>
      <path class="68b9f5ac-7e7c-4b28-90b1-5f704790fb2f" d="M93.62,42.07h-3a1.45,1.45,0,0,1-1.36-.65,4.15,4.15,0,0,1-.4-2.13c0-.18,0-.53,0-1.07s0-1.17,0-1.93,0-1.56,0-2.42,0-1.7,0-2.54,0-1.62,0-2.31,0-1.27,0-1.71V23.69c0-.71,0-1.53,0-2.47s0-1.92,0-2.93,0-2,.05-2.94,0-1.76,0-2.47,0-1.21,0-1.52a4.58,4.58,0,0,1,.09-1.08,1.29,1.29,0,0,1,.48-.76,1.83,1.83,0,0,1,1.13-.28H92.8a.4.4,0,0,0,.34-.12.56.56,0,0,0,.07-.34V7.59a.48.48,0,0,0-.06-.26.27.27,0,0,0-.25-.1c-3,0-6.12.15-9.19.15a2.35,2.35,0,0,0-.75.09.65.65,0,0,0-.44.52,6.82,6.82,0,0,1-.37,1.06c-.22.54-.5,1.21-.85,2s-.73,1.66-1.14,2.59L78.9,16.44,77.73,19c-.36.78-.66,1.44-.9,1.94s-.39.83-.45.95-.21.42-.44.94-.52,1.16-.86,2L74,27.35l-1.22,2.78c-.4.93-.79,1.79-1.15,2.59s-.68,1.45-.94,2a5.74,5.74,0,0,1-.56,1L58.62,8.1a1.3,1.3,0,0,0-.48-.69,1.5,1.5,0,0,0-.86-.19c-3.68.11-7.06,0-10.69,0a.36.36,0,0,0-.29.09,6.07,6.07,0,0,0-.07,1.56.41.41,0,0,0,.07.26c0,.07.15.1.29.1h3.15a3.41,3.41,0,0,1,1.48.23.94.94,0,0,1,.53.65,4.42,4.42,0,0,1,.1,1q0,.39,0,1.21c0,.54,0,1.18,0,1.88s0,1.45,0,2.2,0,1.46,0,2.13v2.59c0,.15,0,.51,0,1.08s0,1.32,0,2.21,0,1.88-.07,3-.06,2.18-.09,3.3-.09,2.23-.15,3.29-.11,2-.18,2.88-.15,1.56-.24,2.09a7.7,7.7,0,0,1-.41,1.58,2.42,2.42,0,0,1-.81,1.1,2.58,2.58,0,0,1-1.51.41H45.67a.28.28,0,0,0-.25.09,6.15,6.15,0,0,0-.06,1.45c0,.39.07.48.46.46h12.9a.52.52,0,0,0,.39-.1.33.33,0,0,0,.08-.26V42.43a.41.41,0,0,0-.06-.26.35.35,0,0,0-.3-.1H56.25A2.14,2.14,0,0,1,55,41.74a2,2,0,0,1-.72-1.15,11.7,11.7,0,0,1-.36-2.29c0-.27,0-.69-.05-1.27s0-1.26,0-2,0-1.61,0-2.49,0-1.73,0-2.58V27.58c0-.71,0-1.3,0-1.76V25c0-.1,0-.42,0-1s0-1.22,0-2,0-1.73,0-2.7,0-1.94,0-2.93,0-1.88.05-2.71,0-1.52.07-2.07a8,8,0,0,1,.09-1,4,4,0,0,1,.53.88c.24.48.54,1.11.88,1.86s.71,1.59,1.1,2.5.79,1.84,1.19,2.79.77,1.85,1.13,2.71.68,1.63.95,2.3l.63,1.52c0,.09.16.39.37.9l.82,2c.33.83.7,1.74,1.11,2.74L64,33.88,65.28,37l1.09,2.69c.33.81.59,1.45.79,2s.31.77.34.82a2.72,2.72,0,0,0,.35.65.56.56,0,0,0,.42.28.61.61,0,0,0,.4-.22,2.86,2.86,0,0,0,.36-.5,4.31,4.31,0,0,0,.27-.52l.4-.9.88-2c.36-.83.75-1.72,1.18-2.69s.84-1.94,1.27-2.92.82-1.88,1.19-2.71.66-1.51.9-2,.38-.86.43-1L76,27c.23-.51.52-1.17.9-2L78.1,22.3c.46-1,.92-2,1.41-3.09s1-2.1,1.43-3.11l1.27-2.74c.39-.83.71-1.5,1-2a8,8,0,0,1,.48-.92h.1a5.77,5.77,0,0,1,.07.89c0,.5,0,1.15,0,1.94s0,1.66,0,2.6,0,1.88,0,2.83V29.07c0,.87,0,1.79,0,2.76s0,1.93,0,2.87,0,1.81,0,2.6,0,1.45,0,2,0,.83,0,.95a3.84,3.84,0,0,1-.22,1.17,1,1,0,0,1-.48.55,1.6,1.6,0,0,1-.74.14H78.86a.49.49,0,0,0-.34.09.39.39,0,0,0-.07.28v1.19a.62.62,0,0,0,.07.34.41.41,0,0,0,.34.12H93.52a.48.48,0,0,0,.39-.12.5.5,0,0,0,.08-.34V42.43a.41.41,0,0,0-.06-.26A.35.35,0,0,0,93.62,42.07Z" transform="translate(0 -0.27)"/>
    </g>
    <path class="14e17320-0eba-418a-9b07-9319e9e46645" d="M167.55,56.86V52.39l-2.51.79v-1l2.66-.93h.93v5.62h1.82v1h-5.12v-1Zm-7.73,1V47.78h1.08V57.86ZM157,55c-.2-.05-.44-.11-.71-.16a5.24,5.24,0,0,0-.9-.08,1.77,1.77,0,0,0-1.08.29,1.05,1.05,0,0,0-.39.9,1.37,1.37,0,0,0,.1.53,1,1,0,0,0,.27.38,1.11,1.11,0,0,0,.4.22,1.68,1.68,0,0,0,.5.07,2,2,0,0,0,.65-.1,2.76,2.76,0,0,0,.53-.24,3,3,0,0,0,.4-.28l.24-.22Zm.05,2.17h0a2.12,2.12,0,0,1-.33.33,2.69,2.69,0,0,1-.47.29,2.86,2.86,0,0,1-.58.2A2.76,2.76,0,0,1,155,58a2.6,2.6,0,0,1-.88-.14A1.87,1.87,0,0,1,153,56.8a2.39,2.39,0,0,1-.16-.9A2.1,2.1,0,0,1,153,55a1.89,1.89,0,0,1,.5-.66,2.23,2.23,0,0,1,.77-.42,3.19,3.19,0,0,1,1-.15,5.6,5.6,0,0,1,1,.09,5.09,5.09,0,0,1,.78.21h0v-.46a2.86,2.86,0,0,0,0-.48,1.15,1.15,0,0,0-.12-.37,1.39,1.39,0,0,0-.58-.55,2.23,2.23,0,0,0-1.07-.22,4.44,4.44,0,0,0-.94.09,6.06,6.06,0,0,0-.88.26v-.9a2.48,2.48,0,0,1,.39-.16l.48-.13a4.92,4.92,0,0,1,.53-.08,5.5,5.5,0,0,1,.56,0,3.34,3.34,0,0,1,1.64.35,2.12,2.12,0,0,1,.91.94,2,2,0,0,1,.15.49,3.47,3.47,0,0,1,0,.59v4.41h-.91Zm-11.44-2.49a5,5,0,0,1,.14-1.22,4,4,0,0,1,.36-.93,2.65,2.65,0,0,1,.52-.67,3.07,3.07,0,0,1,.62-.43,2.77,2.77,0,0,1,.65-.24,3,3,0,0,1,.62-.07,2.51,2.51,0,0,1,1,.2,2.39,2.39,0,0,1,.8.59h0V47.78h1.08V57.86h-.81l-.22-.74h0a3.24,3.24,0,0,1-.29.33,2,2,0,0,1-.39.29,2.16,2.16,0,0,1-.52.21,2.7,2.7,0,0,1-.69.08,3.21,3.21,0,0,1-1.06-.18,2.46,2.46,0,0,1-.93-.59,3,3,0,0,1-.66-1.05A4.29,4.29,0,0,1,145.65,54.64Zm1.13,0a3.87,3.87,0,0,0,.13,1,2.35,2.35,0,0,0,.37.79,1.63,1.63,0,0,0,.6.5,1.82,1.82,0,0,0,.81.18,2,2,0,0,0,.62-.09,2.18,2.18,0,0,0,.5-.23,2.23,2.23,0,0,0,.38-.3,2,2,0,0,0,.25-.29V52.75a2.61,2.61,0,0,0-.77-.55,2.19,2.19,0,0,0-.95-.21,2,2,0,0,0-.64.12,1.58,1.58,0,0,0-.62.41,2.32,2.32,0,0,0-.48.8A3.74,3.74,0,0,0,146.78,54.62Zm-6.31.33c-.2-.05-.44-.11-.71-.16a5.24,5.24,0,0,0-.9-.08,1.77,1.77,0,0,0-1.08.29,1.05,1.05,0,0,0-.39.9,1.37,1.37,0,0,0,.1.53,1,1,0,0,0,.27.38,1.11,1.11,0,0,0,.4.22,1.68,1.68,0,0,0,.5.07,2,2,0,0,0,.65-.1,2.76,2.76,0,0,0,.53-.24,3,3,0,0,0,.4-.28l.24-.22Zm.05,2.17h0a2.12,2.12,0,0,1-.33.33,2.69,2.69,0,0,1-.47.29,2.86,2.86,0,0,1-.58.2,2.76,2.76,0,0,1-.67.08,2.6,2.6,0,0,1-.88-.14,1.87,1.87,0,0,1-1.14-1.09,2.39,2.39,0,0,1-.16-.9,2.1,2.1,0,0,1,.18-.88,1.89,1.89,0,0,1,.5-.66,2.23,2.23,0,0,1,.77-.42,3.19,3.19,0,0,1,1-.15,5.6,5.6,0,0,1,1,.09,5.09,5.09,0,0,1,.78.21h0v-.46a2.86,2.86,0,0,0,0-.48,1.15,1.15,0,0,0-.12-.37,1.39,1.39,0,0,0-.58-.55,2.23,2.23,0,0,0-1.07-.22,4.44,4.44,0,0,0-.94.09,6.06,6.06,0,0,0-.88.26v-.9a2.48,2.48,0,0,1,.39-.16l.48-.13a4.92,4.92,0,0,1,.53-.08,5.5,5.5,0,0,1,.56,0,3.34,3.34,0,0,1,1.64.35,2.12,2.12,0,0,1,.91.94,2,2,0,0,1,.15.49,3.48,3.48,0,0,1,0,.59v4.41h-.91Zm-9.89-5h0a3.41,3.41,0,0,1,.4-.43,2.73,2.73,0,0,1,.49-.35,2.48,2.48,0,0,1,.59-.23,2.77,2.77,0,0,1,.71-.08,2.8,2.8,0,0,1,.85.12,1.75,1.75,0,0,1,.69.4,1.93,1.93,0,0,1,.46.73,3.12,3.12,0,0,1,.17,1.1v4.43h-1.08V53.6a1.85,1.85,0,0,0-.33-1.23,1.21,1.21,0,0,0-1-.38,2.09,2.09,0,0,0-1.08.31,2.84,2.84,0,0,0-.9.85v4.7h-1.08V51.25h.84ZM126.87,55c-.2-.05-.44-.11-.71-.16a5.24,5.24,0,0,0-.9-.08,1.77,1.77,0,0,0-1.08.29,1.05,1.05,0,0,0-.39.9,1.37,1.37,0,0,0,.1.53,1,1,0,0,0,.27.38,1.11,1.11,0,0,0,.4.22,1.68,1.68,0,0,0,.5.07,2,2,0,0,0,.65-.1,2.76,2.76,0,0,0,.53-.24,3,3,0,0,0,.4-.28l.24-.22Zm.05,2.17h0a2.12,2.12,0,0,1-.33.33,2.68,2.68,0,0,1-.47.29,2.86,2.86,0,0,1-.58.2,2.76,2.76,0,0,1-.67.08,2.6,2.6,0,0,1-.88-.14,1.87,1.87,0,0,1-1.14-1.09,2.39,2.39,0,0,1-.16-.9,2.1,2.1,0,0,1,.18-.88,1.89,1.89,0,0,1,.5-.66,2.23,2.23,0,0,1,.77-.42,3.19,3.19,0,0,1,1-.15,5.6,5.6,0,0,1,1,.09,5.09,5.09,0,0,1,.78.21h0v-.46a2.86,2.86,0,0,0,0-.48,1.15,1.15,0,0,0-.12-.37,1.39,1.39,0,0,0-.58-.55,2.23,2.23,0,0,0-1.07-.22,4.44,4.44,0,0,0-.94.09,6.06,6.06,0,0,0-.88.26v-.9a2.48,2.48,0,0,1,.39-.16l.48-.13a4.92,4.92,0,0,1,.53-.08,5.5,5.5,0,0,1,.56,0,3.34,3.34,0,0,1,1.64.35,2.12,2.12,0,0,1,.91.94,2,2,0,0,1,.15.49,3.48,3.48,0,0,1,0,.59v4.41H127Zm-6.68-7.42V48.5h1.14v1.2Zm0,8.15V51.25h1.08v6.61Zm-2.86,0V47.78h1.08V57.86Zm-2.89-8.15V48.5h1.14v1.2Zm0,8.15V51.25h1.08v6.61Zm-3-6.78a4.11,4.11,0,0,1,.92.1,2.66,2.66,0,0,1,.75.28v.9a6.17,6.17,0,0,0-.81-.25,3.45,3.45,0,0,0-.75-.08,2.52,2.52,0,0,0-.8.13,1.84,1.84,0,0,0-.71.43,2.15,2.15,0,0,0-.5.8,3.44,3.44,0,0,0-.19,1.24,3.28,3.28,0,0,0,.14,1,2.2,2.2,0,0,0,.43.78,1.91,1.91,0,0,0,.71.52,2.43,2.43,0,0,0,1,.19,3.83,3.83,0,0,0,.81-.09,4.58,4.58,0,0,0,.8-.25v.9a1.88,1.88,0,0,1-.31.14l-.42.12-.49.08a4.13,4.13,0,0,1-.52,0,3.88,3.88,0,0,1-1.26-.2,2.81,2.81,0,0,1-1-.62,2.93,2.93,0,0,1-.7-1.06,4,4,0,0,1-.26-1.52,4.71,4.71,0,0,1,.14-1.18,3.61,3.61,0,0,1,.37-.92,2.79,2.79,0,0,1,.55-.67,3,3,0,0,1,.67-.46,3.16,3.16,0,0,1,.74-.26A3.72,3.72,0,0,1,111.52,51.07Zm-5.66-1.37V48.5H107v1.2Zm0,8.15V51.25H107v6.61ZM101.21,53a.78.78,0,0,0,.12.45.89.89,0,0,0,.32.28,2.15,2.15,0,0,0,.46.18l.54.13.72.18a2.2,2.2,0,0,1,.63.3,1.46,1.46,0,0,1,.47.55,1.94,1.94,0,0,1,.18.89,2,2,0,0,1-.19.89,1.8,1.8,0,0,1-.55.65,2.55,2.55,0,0,1-.85.4A4.11,4.11,0,0,1,102,58a5,5,0,0,1-.66,0,4.24,4.24,0,0,1-.52-.1l-.38-.12-.27-.12v-.9A5.86,5.86,0,0,0,101,57a3.83,3.83,0,0,0,.9.1,3.19,3.19,0,0,0,.7-.07,1.78,1.78,0,0,0,.54-.2,1,1,0,0,0,.35-.34.91.91,0,0,0,.12-.48.87.87,0,0,0-.11-.46,1,1,0,0,0-.3-.3,1.93,1.93,0,0,0-.43-.19l-.52-.14-.72-.18a2.55,2.55,0,0,1-.67-.29,1.39,1.39,0,0,1-.48-.51,1.66,1.66,0,0,1-.19-.83,2,2,0,0,1,.19-.9,1.83,1.83,0,0,1,.51-.63,2.22,2.22,0,0,1,.74-.38,3.19,3.19,0,0,1,.9-.12,4.76,4.76,0,0,1,1,.1,5.29,5.29,0,0,1,.85.27v.92a6.55,6.55,0,0,0-.85-.26,4,4,0,0,0-.88-.11,2.48,2.48,0,0,0-.65.08,1.3,1.3,0,0,0-.45.21.82.82,0,0,0-.25.32A1,1,0,0,0,101.21,53ZM94.95,55c-.2-.05-.44-.11-.71-.16a5.24,5.24,0,0,0-.9-.08,1.77,1.77,0,0,0-1.08.29,1.05,1.05,0,0,0-.39.9,1.37,1.37,0,0,0,.1.53,1,1,0,0,0,.27.38,1.11,1.11,0,0,0,.4.22,1.68,1.68,0,0,0,.5.07,2,2,0,0,0,.65-.1,2.76,2.76,0,0,0,.53-.24,3,3,0,0,0,.4-.28l.24-.22ZM95,57.12h0a2.12,2.12,0,0,1-.33.33,2.69,2.69,0,0,1-.47.29,2.86,2.86,0,0,1-.58.2,2.76,2.76,0,0,1-.67.08,2.6,2.6,0,0,1-.88-.14,1.87,1.87,0,0,1-1.14-1.09,2.39,2.39,0,0,1-.16-.9,2.1,2.1,0,0,1,.18-.88,1.89,1.89,0,0,1,.5-.66,2.23,2.23,0,0,1,.77-.42,3.19,3.19,0,0,1,1-.15,5.6,5.6,0,0,1,1,.09,5.09,5.09,0,0,1,.78.21h0v-.46a2.85,2.85,0,0,0,0-.48,1.15,1.15,0,0,0-.12-.37,1.39,1.39,0,0,0-.58-.55A2.23,2.23,0,0,0,93.14,52a4.44,4.44,0,0,0-.94.09,6.06,6.06,0,0,0-.88.26v-.9a2.48,2.48,0,0,1,.39-.16l.48-.13a4.91,4.91,0,0,1,.53-.08,5.5,5.5,0,0,1,.56,0,3.34,3.34,0,0,1,1.64.35,2.12,2.12,0,0,1,.91.94,2,2,0,0,1,.15.49,3.48,3.48,0,0,1,0,.59v4.41h-.91Zm-6.68-7.42V48.5h1.14v1.2Zm0,8.15V51.25h1.08v6.61Zm-.77-5.73h-.08a4.17,4.17,0,0,0-.75.07,3.25,3.25,0,0,0-.69.21,2.56,2.56,0,0,0-.58.35,1.77,1.77,0,0,0-.43.49v4.61H83.95V51.25h.84l.21,1h0a2.55,2.55,0,0,1,.39-.48,2.79,2.79,0,0,1,.53-.39,2.65,2.65,0,0,1,.64-.26,2.83,2.83,0,0,1,.73-.09h.27Zm-7.09,5a5,5,0,0,0,1-.09,5.74,5.74,0,0,0,.88-.25v.9a3.58,3.58,0,0,1-.88.28,5.94,5.94,0,0,1-1.12.1A4.74,4.74,0,0,1,79,57.85a2.88,2.88,0,0,1-1.09-.58,2.73,2.73,0,0,1-.73-1.05,4.12,4.12,0,0,1-.27-1.57,4.4,4.4,0,0,1,.25-1.57A3.28,3.28,0,0,1,77.84,52a2.74,2.74,0,0,1,1-.67,3,3,0,0,1,1.14-.22,2.89,2.89,0,0,1,1,.18,2.12,2.12,0,0,1,.84.58,2.84,2.84,0,0,1,.56,1,4.91,4.91,0,0,1,.2,1.5v.14s0,.13,0,.27H78a2.69,2.69,0,0,0,.19,1.08,1.91,1.91,0,0,0,.52.72,2.08,2.08,0,0,0,.78.4A3.55,3.55,0,0,0,80.49,57.09ZM79.9,52a1.62,1.62,0,0,0-.68.15,1.74,1.74,0,0,0-.55.4,2,2,0,0,0-.38.59,2.29,2.29,0,0,0-.18.72h3.34a2.48,2.48,0,0,0-.1-.73,1.79,1.79,0,0,0-.29-.59,1.38,1.38,0,0,0-.48-.39A1.46,1.46,0,0,0,79.9,52Zm-5.55-.92a4.11,4.11,0,0,1,.92.1,2.66,2.66,0,0,1,.75.28v.9a6.17,6.17,0,0,0-.81-.25,3.45,3.45,0,0,0-.75-.08,2.52,2.52,0,0,0-.8.13,1.84,1.84,0,0,0-.71.43,2.15,2.15,0,0,0-.5.8,3.44,3.44,0,0,0-.19,1.24,3.28,3.28,0,0,0,.14,1,2.2,2.2,0,0,0,.43.78,1.91,1.91,0,0,0,.71.52,2.43,2.43,0,0,0,1,.19,3.83,3.83,0,0,0,.81-.09,4.58,4.58,0,0,0,.8-.25v.9a1.88,1.88,0,0,1-.31.14l-.42.12L74.9,58a4.13,4.13,0,0,1-.52,0,3.88,3.88,0,0,1-1.26-.2,2.81,2.81,0,0,1-1-.62,2.93,2.93,0,0,1-.7-1.06,4,4,0,0,1-.26-1.52,4.71,4.71,0,0,1,.14-1.18,3.61,3.61,0,0,1,.37-.92,2.78,2.78,0,0,1,.55-.67,3,3,0,0,1,.67-.46,3.16,3.16,0,0,1,.74-.26A3.72,3.72,0,0,1,74.35,51.07Zm-5.59,0a4.11,4.11,0,0,1,.92.1,2.66,2.66,0,0,1,.75.28v.9a6.17,6.17,0,0,0-.81-.25,3.45,3.45,0,0,0-.75-.08,2.52,2.52,0,0,0-.8.13,1.84,1.84,0,0,0-.71.43,2.15,2.15,0,0,0-.5.8,3.44,3.44,0,0,0-.19,1.24,3.28,3.28,0,0,0,.14,1,2.2,2.2,0,0,0,.43.78,1.91,1.91,0,0,0,.71.52,2.43,2.43,0,0,0,1,.19,3.83,3.83,0,0,0,.81-.09,4.58,4.58,0,0,0,.8-.25v.9a1.88,1.88,0,0,1-.31.14l-.42.12-.49.08a4.13,4.13,0,0,1-.52,0,3.88,3.88,0,0,1-1.26-.2,2.81,2.81,0,0,1-1-.62,2.93,2.93,0,0,1-.7-1.06,4,4,0,0,1-.26-1.52,4.71,4.71,0,0,1,.14-1.18,3.61,3.61,0,0,1,.37-.92,2.78,2.78,0,0,1,.55-.67,3,3,0,0,1,.67-.46,3.16,3.16,0,0,1,.74-.26A3.72,3.72,0,0,1,68.76,51.07ZM63.1,49.71V48.5h1.14v1.2Zm0,8.15V51.25h1.08v6.61Zm-1.08,0a2.4,2.4,0,0,1-.42.1,4.88,4.88,0,0,1-.68.05,2.84,2.84,0,0,1-.9-.13,1.72,1.72,0,0,1-.64-.37A1.51,1.51,0,0,1,59,57a2.19,2.19,0,0,1-.13-.76v-4H57.62v-.92H58.9V49.44H60v1.81h2v.92H60V56a1.28,1.28,0,0,0,.07.43.87.87,0,0,0,.21.34,1,1,0,0,0,.37.22,1.54,1.54,0,0,0,.53.08,3.08,3.08,0,0,0,.46,0A3.45,3.45,0,0,0,62,57ZM53.94,53a.79.79,0,0,0,.12.45.89.89,0,0,0,.32.28,2.14,2.14,0,0,0,.46.18l.54.13.72.18a2.2,2.2,0,0,1,.63.3,1.46,1.46,0,0,1,.47.55,1.94,1.94,0,0,1,.18.89,2,2,0,0,1-.19.89,1.8,1.8,0,0,1-.55.65,2.55,2.55,0,0,1-.85.4A4.11,4.11,0,0,1,54.7,58,5,5,0,0,1,54,58a4.24,4.24,0,0,1-.52-.1l-.38-.12-.27-.12v-.9a5.86,5.86,0,0,0,.83.26,3.83,3.83,0,0,0,.9.1,3.19,3.19,0,0,0,.7-.07,1.78,1.78,0,0,0,.54-.2,1,1,0,0,0,.35-.34.91.91,0,0,0,.12-.48.87.87,0,0,0-.11-.46,1,1,0,0,0-.3-.3,1.93,1.93,0,0,0-.43-.19l-.52-.14-.72-.18a2.55,2.55,0,0,1-.67-.29,1.39,1.39,0,0,1-.48-.51,1.66,1.66,0,0,1-.19-.83,2,2,0,0,1,.19-.9,1.83,1.83,0,0,1,.51-.63,2.22,2.22,0,0,1,.74-.38,3.19,3.19,0,0,1,.9-.12,4.76,4.76,0,0,1,1,.1,5.29,5.29,0,0,1,.85.27v.92a6.55,6.55,0,0,0-.85-.26,4,4,0,0,0-.88-.11,2.48,2.48,0,0,0-.65.08,1.3,1.3,0,0,0-.45.21.82.82,0,0,0-.25.32A1,1,0,0,0,53.94,53ZM50.53,55c-.2-.05-.44-.11-.71-.16a5.24,5.24,0,0,0-.9-.08,1.77,1.77,0,0,0-1.08.29,1.05,1.05,0,0,0-.39.9,1.37,1.37,0,0,0,.1.53,1,1,0,0,0,.27.38,1.11,1.11,0,0,0,.4.22,1.68,1.68,0,0,0,.5.07,2,2,0,0,0,.65-.1,2.76,2.76,0,0,0,.53-.24,3,3,0,0,0,.4-.28l.24-.22Zm.05,2.17h0a2.12,2.12,0,0,1-.33.33,2.69,2.69,0,0,1-.47.29,2.86,2.86,0,0,1-.58.2,2.76,2.76,0,0,1-.67.08,2.6,2.6,0,0,1-.88-.14A1.87,1.87,0,0,1,46.5,56.8a2.39,2.39,0,0,1-.16-.9,2.1,2.1,0,0,1,.18-.88,1.89,1.89,0,0,1,.5-.66,2.23,2.23,0,0,1,.77-.42,3.19,3.19,0,0,1,1-.15,5.6,5.6,0,0,1,1,.09,5.09,5.09,0,0,1,.78.21h0v-.46a2.86,2.86,0,0,0,0-.48,1.15,1.15,0,0,0-.12-.37,1.39,1.39,0,0,0-.58-.55A2.23,2.23,0,0,0,48.73,52a4.44,4.44,0,0,0-.94.09,6.06,6.06,0,0,0-.88.26v-.9a2.48,2.48,0,0,1,.39-.16l.48-.13a4.92,4.92,0,0,1,.53-.08,5.5,5.5,0,0,1,.56,0,3.34,3.34,0,0,1,1.64.35,2.12,2.12,0,0,1,.91.94,2,2,0,0,1,.15.49,3.47,3.47,0,0,1,0,.59v4.41h-.91ZM40.32,53l.48,0h.47a6.39,6.39,0,0,0,1.36-.13,2.69,2.69,0,0,0,.92-.37,1.42,1.42,0,0,0,.52-.58,1.84,1.84,0,0,0,.16-.78A1.45,1.45,0,0,0,44,50.3a1.59,1.59,0,0,0-.74-.53,2.78,2.78,0,0,0-.69-.16,7.77,7.77,0,0,0-.9,0H40.32Zm0,4.86H39.18V48.55h2.58a7.86,7.86,0,0,1,1.07.07,4.72,4.72,0,0,1,.9.22,2.59,2.59,0,0,1,1.27.9,2.43,2.43,0,0,1,.43,1.46,2.66,2.66,0,0,1-.28,1.25,2.45,2.45,0,0,1-.82.9,4,4,0,0,1-1.3.55,7.62,7.62,0,0,1-1.74.18c-.31,0-.63,0-1,0Z" transform="translate(0 -0.27)"/>
    <path class="14e17320-0eba-418a-9b07-9319e9e46645" d="M184.67,52.24v-1h5.46V52l-3.83,8.58h-1.13l3.72-8.31ZM181,55.89a3.48,3.48,0,0,0,1-.16,4.41,4.41,0,0,0,.94-.41,6.85,6.85,0,0,0-.16-1.51,3.24,3.24,0,0,0-.42-1,1.68,1.68,0,0,0-.64-.59,1.76,1.76,0,0,0-.82-.19,1.78,1.78,0,0,0-.69.13,1.49,1.49,0,0,0-.55.39,1.79,1.79,0,0,0-.36.63,2.63,2.63,0,0,0-.13.86,2.7,2.7,0,0,0,.12.87,1.5,1.5,0,0,0,.36.58,1.37,1.37,0,0,0,.56.33A2.42,2.42,0,0,0,181,55.89ZM180,60.73a4.32,4.32,0,0,1-1-.11,3.35,3.35,0,0,1-.8-.3V59.4a3.48,3.48,0,0,0,.79.29,4,4,0,0,0,.91.1,3.26,3.26,0,0,0,1.16-.19A2.28,2.28,0,0,0,182,59a3.1,3.1,0,0,0,.62-1.08,6.23,6.23,0,0,0,.3-1.59h0a3.19,3.19,0,0,1-.44.22,4.21,4.21,0,0,1-.52.17,4.82,4.82,0,0,1-.56.12,4.24,4.24,0,0,1-.57,0,3.13,3.13,0,0,1-1.07-.18,2.51,2.51,0,0,1-.87-.52,2.44,2.44,0,0,1-.59-.86,3,3,0,0,1-.22-1.19,3.64,3.64,0,0,1,.19-1.2,2.73,2.73,0,0,1,.56-1,2.53,2.53,0,0,1,.91-.64,3,3,0,0,1,1.23-.23,3,3,0,0,1,1.34.29,2.59,2.59,0,0,1,1,.85,4.07,4.07,0,0,1,.6,1.38,7.9,7.9,0,0,1,.2,1.89,9.33,9.33,0,0,1-.1,1.38,6.75,6.75,0,0,1-.3,1.25,4.52,4.52,0,0,1-.53,1.07,3.51,3.51,0,0,1-.77.83,3.38,3.38,0,0,1-1,.53A4.2,4.2,0,0,1,180,60.73Zm-6.1-4.84a3.48,3.48,0,0,0,1-.16,4.42,4.42,0,0,0,.94-.41,6.86,6.86,0,0,0-.16-1.51,3.24,3.24,0,0,0-.42-1,1.68,1.68,0,0,0-.64-.59,1.76,1.76,0,0,0-.82-.19,1.78,1.78,0,0,0-.69.13,1.49,1.49,0,0,0-.55.39,1.79,1.79,0,0,0-.36.63,2.63,2.63,0,0,0-.13.86,2.69,2.69,0,0,0,.12.87,1.5,1.5,0,0,0,.36.58,1.37,1.37,0,0,0,.56.33A2.42,2.42,0,0,0,173.94,55.89ZM173,60.73a4.32,4.32,0,0,1-1-.11,3.35,3.35,0,0,1-.8-.3V59.4a3.48,3.48,0,0,0,.79.29,4,4,0,0,0,.91.1,3.26,3.26,0,0,0,1.16-.19A2.28,2.28,0,0,0,175,59a3.1,3.1,0,0,0,.62-1.08,6.23,6.23,0,0,0,.3-1.59h0a3.2,3.2,0,0,1-.44.22,4.21,4.21,0,0,1-.52.17,4.82,4.82,0,0,1-.56.12,4.24,4.24,0,0,1-.57,0,3.13,3.13,0,0,1-1.07-.18,2.51,2.51,0,0,1-.87-.52,2.44,2.44,0,0,1-.59-.86,3,3,0,0,1-.22-1.19,3.64,3.64,0,0,1,.19-1.2,2.74,2.74,0,0,1,.56-1,2.53,2.53,0,0,1,.91-.64,3,3,0,0,1,1.23-.23,3,3,0,0,1,1.34.29,2.59,2.59,0,0,1,1,.85,4.07,4.07,0,0,1,.6,1.38,7.9,7.9,0,0,1,.2,1.89,9.33,9.33,0,0,1-.1,1.38,6.75,6.75,0,0,1-.3,1.25,4.52,4.52,0,0,1-.52,1.07,3.51,3.51,0,0,1-.77.83,3.38,3.38,0,0,1-1,.53A4.2,4.2,0,0,1,173,60.73Z" transform="translate(0 -0.27)"/>
    <path class="83fc28ab-ce38-4621-b23a-601f062621d6" d="M217.37,22.49c0,.43,0,1,0,1.78s0,1.6,0,2.54,0,1.93,0,3,0,2,0,3,0,1.88-.06,2.68,0,1.49,0,2,0,.86-.06,1A1.72,1.72,0,0,1,215.66,40a5.36,5.36,0,0,1-1.11.09H211.4a.55.55,0,0,0-.33.08.28.28,0,0,0-.12.25V42a.28.28,0,0,0,.12.25.55.55,0,0,0,.33.08h16.22q.51,0,.51-.34V40.51a.34.34,0,0,0-.12-.3.49.49,0,0,0-.33-.09h-2.31a5.55,5.55,0,0,1-1.48-.14,1.41,1.41,0,0,1-.88-.58,2.47,2.47,0,0,1-.28-1.3c0-.1,0-.41,0-.95s0-1.21,0-2,0-1.72,0-2.68,0-1.93,0-2.9,0-1.85,0-2.67,0-1.49,0-2,0-.84,0-.93V19.56c0-.11,0-.42,0-.94s0-1.18,0-2,0-1.65,0-2.58,0-1.86,0-2.79,0-1.78,0-2.56,0-1.44,0-1.94,0-.81,0-.9a1.38,1.38,0,0,1,.56-1.21,2.35,2.35,0,0,1,1.41-.37h2.65a.49.49,0,0,0,.33-.09.35.35,0,0,0,.12-.3V2.49a.41.41,0,0,0-.09-.28.36.36,0,0,0-.3-.11c-5.51,0-10.81.15-16.39,0a.46.46,0,0,0-.28.08.3.3,0,0,0-.11.25V4a.28.28,0,0,0,.12.25.55.55,0,0,0,.33.08h3.27a5.57,5.57,0,0,1,1.66.2,1.54,1.54,0,0,1,.85.62,2.42,2.42,0,0,1,.3,1.1c0,.15,0,.53,0,1.11s0,1.31,0,2.17,0,1.75,0,2.7,0,1.86,0,2.74,0,1.64,0,2.29,0,1.08,0,1.32Z" transform="translate(0 -0.27)"/>
    <path class="e0de166b-5792-40d0-8220-a6ee83fcac0e" d="M135.45,20.35C134,9,123.19,1.05,111.32,2.58a22.6,22.6,0,0,0-6.4,1.8h0A20.83,20.83,0,0,0,92.48,25.88c1.46,11.34,12.26,19.29,24.13,17.77S136.91,31.69,135.45,20.35Z" transform="translate(0 -0.27)"/>
    <path class="d16e61d6-09c3-4537-b0f4-bacc52b86d02" d="M135.8,20.3C134.32,8.78,123.34.7,111.28,2.25a23,23,0,0,0-6.5,1.83h0A21.17,21.17,0,0,0,92.14,25.92C93.62,37.45,104.6,45.53,116.65,44S137.28,31.82,135.8,20.3Zm-19.95-9.72a1.73,1.73,0,0,1,2.22.76,1.22,1.22,0,0,1-.66,1.45,1.88,1.88,0,0,1-2.09-.2A7.64,7.64,0,0,0,115.85,10.58Zm-.85,7.2a1.59,1.59,0,0,1-1.58,1c-1.32,0-2.12-1.26-1.11-2.23a1.91,1.91,0,0,1,1.21-.42C114.44,16.15,115.23,16.81,115,17.78ZM109.39,4.89c.52-1.15,1.14-1.52,1.81-1.5a4.44,4.44,0,0,0-.88,2.22,10.32,10.32,0,0,0,1.05,6.54c.64,1,1.34,1.78,2.2,1.83a2.28,2.28,0,0,1-.34.34c-1.14.89-2.46.06-3.5-2.07h0a8.61,8.61,0,0,1-.49-1.41A9.52,9.52,0,0,1,109.39,4.89Zm1.37,17.05a7,7,0,0,0-.57,2,1.65,1.65,0,0,1-1.84-.09A1.41,1.41,0,0,1,108,22,1.67,1.67,0,0,1,110.76,21.95Zm-3.56-9.33a1.73,1.73,0,0,1,1.78.64,1.17,1.17,0,0,1-.58,1.69,9.06,9.06,0,0,0-2.26-.44C105.66,13.82,106.09,12.82,107.19,12.62ZM132.78,27a18.32,18.32,0,0,1-8.66,10.57,20.72,20.72,0,0,1-17,1.73,19.18,19.18,0,0,1-10.82-9.08,17.94,17.94,0,0,1-2.14-8.77,18.7,18.7,0,0,1,2.4-8.86A19,19,0,0,1,105,4.7v0a15.71,15.71,0,0,0-7.23,12.09c-.67.8-.75,1.57.15,2.27,1.38.9,3.48,1.14,6.21.8s4.62-1.28,5.56-2.43c1.27,1.71-1.38,3.3-4.61,4-2.88.56-5.46.43-7.1-.57a16.27,16.27,0,0,0,6,9.78,15.57,15.57,0,0,0,8.78,3.11c1,.62,1.83.35,2.54-1.23a13.1,13.1,0,0,0,.26-6.5c-.48-2.43-1.28-4-2.35-5h0l-.06-.05h0a1.69,1.69,0,0,1,1.83.68h0l.06.07a8.45,8.45,0,0,1,1.1,1.93,9.32,9.32,0,0,1,.63,2c.81,3.58.34,6.55-.5,7.78a15.69,15.69,0,0,0,11.21-8.85,16.52,16.52,0,0,0,1.42-6.78c.88-1.35,0-2.22-1.9-2.78-3.88-.84-8.26.34-10,2.36-1.07-1.14-.36-2.44,2.09-3.52,3.36-1.36,7.33-1.33,9.28-.09A15.64,15.64,0,0,0,116.6,2.67,19.38,19.38,0,0,1,132.68,15.2,18.4,18.4,0,0,1,132.78,27Zm-15.36-7.51a5.57,5.57,0,0,0,2.15.76c.3.79-.22,1.55-1.22,1.74a1.56,1.56,0,0,1-1.87-1A1.32,1.32,0,0,1,117.43,19.54Z" transform="translate(0 -0.27)"/>
    <path class="83fc28ab-ce38-4621-b23a-601f062621d6" d="M147.09,19.79V16.63c0-.79,0-1.61,0-2.46s0-1.63,0-2.37,0-1.32,0-1.76a4.76,4.76,0,0,1,.24-1.46,1.81,1.81,0,0,1,.74-1,3.44,3.44,0,0,1,1.2-.36,12.84,12.84,0,0,1,1.55-.14c.52,0,1,0,1.38,0a21.91,21.91,0,0,1,5.31.63,17,17,0,0,1,4.37,1.74A13.27,13.27,0,0,1,165.21,12a14.28,14.28,0,0,1,1.71,2.37,19.74,19.74,0,0,1,1.33,2.86,19.42,19.42,0,0,1,.88,3.09,16,16,0,0,1,.31,3.1A21.15,21.15,0,0,1,169,28a20,20,0,0,1-1.33,4,15.47,15.47,0,0,1-1.94,3.16A13.67,13.67,0,0,1,162.55,38a14.87,14.87,0,0,1-4.1,1.94,16.66,16.66,0,0,1-4.91.71,13.66,13.66,0,0,1-2.38-.19,7.44,7.44,0,0,1-1.88-.55,3.24,3.24,0,0,1-1.21-.91,5.47,5.47,0,0,1-.69-1.45,5,5,0,0,1-.19-1.45c0-.54,0-1.21,0-2s0-1.63,0-2.55,0-1.82,0-2.72,0-1.74,0-2.51,0-1.41,0-1.92V19.79Zm-4.75,2.53c0,.69,0,1.54,0,2.56s0,2.13,0,3.32,0,2.38-.06,3.58-.05,2.31-.08,3.34-.05,1.89-.09,2.59S142,38.85,142,39a1.28,1.28,0,0,1-.5.93,1.89,1.89,0,0,1-1.15.31h-3.46a.5.5,0,0,0-.3.08.26.26,0,0,0-.11.23v1.34a.31.31,0,0,0,.36.36h16.78c1,0,2.17,0,3.49-.09a24.28,24.28,0,0,0,4.16-.6A18,18,0,0,0,165.61,40a15.11,15.11,0,0,0,4-3.17A20.65,20.65,0,0,0,172.49,33a16.86,16.86,0,0,0,1.7-4.39,23.05,23.05,0,0,0,.57-5.33,19.35,19.35,0,0,0-.74-5.43,15.78,15.78,0,0,0-2-4.37,16.46,16.46,0,0,0-3-3.36,16.92,16.92,0,0,0-3.6-2.36,19.92,19.92,0,0,0-4-1.42A29.23,29.23,0,0,0,157,5.62c-1.53-.13-3.12-.19-4.79-.18H137a.57.57,0,0,0-.26.05.21.21,0,0,0-.1.21V7.09c0,.15,0,.25.11.29a.5.5,0,0,0,.3.07h2.84a5,5,0,0,1,1.16.09,1.32,1.32,0,0,1,.72.42,1.82,1.82,0,0,1,.34.93c0,.15,0,.46.05.92s0,1,.06,1.64,0,1.32.06,2,0,1.4,0,2.06,0,1.26,0,1.77,0,.88,0,1.11Z" transform="translate(0 -0.27)"/>
    <path class="83fc28ab-ce38-4621-b23a-601f062621d6" d="M186.37,7.28l9.19.21a6.72,6.72,0,0,1,2.07.44,9.56,9.56,0,0,1,1.85.95,6.9,6.9,0,0,1,1,.89c.4.43.85.91,1.32,1.45s.91,1.08,1.33,1.59l1,1.32c.28.36.43.57.46.62a.36.36,0,0,0,.16.15.26.26,0,0,0,.25,0l.77-.41a.28.28,0,0,0,.17-.19.62.62,0,0,0,0-.28c0-.09-.1-.34-.23-.74s-.28-.89-.47-1.47L204.69,10l-.59-1.87c-.19-.59-.35-1.11-.48-1.53s-.22-.7-.26-.83a.41.41,0,0,0-.13-.19.49.49,0,0,0-.28-.07h-26a.44.44,0,0,0-.28.07c-.17.14-.09,1.27-.09,1.53s0,.25.11.29a.51.51,0,0,0,.3.07h1.86a5,5,0,0,1,1.49.15,1.27,1.27,0,0,1,.79.6,3.18,3.18,0,0,1,.35,1.26c0,.11,0,.43,0,1s0,1.19,0,2,0,1.69,0,2.64,0,1.92,0,2.89,0,1.9,0,2.77V38a4.89,4.89,0,0,1-.14,1.44,1,1,0,0,1-.71.67,5.9,5.9,0,0,1-1.73.16H177a1.12,1.12,0,0,0-.4.05c-.23.1-.12,1.34-.12,1.6a.31.31,0,0,0,.12.28.55.55,0,0,0,.34.09h27.26a1.2,1.2,0,0,0,.74-.22,1.1,1.1,0,0,0,.4-.56l2.74-7.59a1.13,1.13,0,0,0,.1-.46.34.34,0,0,0-.21-.27l-.83-.46a.35.35,0,0,0-.37,0,.94.94,0,0,0-.25.31c-.15.24-.37.57-.66,1s-.6.83-1,1.3-.71.92-1.06,1.36l-.94,1.14a7.06,7.06,0,0,1-.61.65,6.49,6.49,0,0,1-1.57.95A12,12,0,0,1,199,40a9.56,9.56,0,0,1-1.26.26c-.28,0-.63.05-1,.07l-1.31.05-1.26,0h-.93a19.82,19.82,0,0,1-2-.1c-.68-.07-1.28-.15-1.82-.26a3.77,3.77,0,0,1-1.46-.58,3.05,3.05,0,0,1-1-1.27,5.44,5.44,0,0,1-.43-2.17c0-.22,0-.57,0-1s0-1,0-1.7,0-1.33,0-2.06,0-1.44,0-2.12,0-1.32,0-1.89V24h1.08l1.73,0q1,0,2,.08c.7,0,1.35.08,2,.15a2.42,2.42,0,0,1,1.5.65,3.13,3.13,0,0,1,.72,1.36c.05.2.12.44.19.73s.15.59.22.89.12.57.15.8a.85.85,0,0,0,.13.39.27.27,0,0,0,.28.08l1.14-.15a.36.36,0,0,0,.31-.41q-.05-.57-.13-1.47c0-.61-.09-1.26-.12-1.94s-.06-1.34-.06-2V22.4c0-.39,0-.83,0-1.32s0-1,0-1.5,0-1,0-1.35a6.76,6.76,0,0,1,.08-.87.36.36,0,0,0,0-.28.32.32,0,0,0-.27-.13l-1.29-.05a.37.37,0,0,0-.26.09.33.33,0,0,0-.1.28,12.39,12.39,0,0,1-.17,1.44,9.8,9.8,0,0,1-.24,1.08,5.13,5.13,0,0,1-.49,1.24,1.78,1.78,0,0,1-.71.68,4.11,4.11,0,0,1-1.18.34c-.14,0-.43,0-.88.07l-1.58.09-1.79.08-1.52.05-.78,0Z" transform="translate(0 -0.27)"/>
    <path class="83fc28ab-ce38-4621-b23a-601f062621d6" d="M13.12,24.37c.07-.22.21-.66.44-1.32l.87-2.45c.36-1,.73-2,1.14-3.11l1.21-3.29,1.12-3c.34-.93.63-1.69.84-2.29l.4-1.07a2.48,2.48,0,0,1,.29-.59A.47.47,0,0,1,19.77,7c.08,0,.16.09.23.24l.23.54c0,.13.17.5.36,1.1l.74,2.27,1,3c.35,1.08.7,2.17,1.05,3.27s.69,2.13,1,3.1L25.12,23c.22.69.37,1.15.44,1.41Zm13.12,2c.16.46.38,1.09.63,1.87l.84,2.56c.29.94.58,1.87.86,2.79s.53,1.76.75,2.52.38,1.33.47,1.75a1.89,1.89,0,0,1-.1,1.66A2,2,0,0,1,28.1,40H26.69a.68.68,0,0,0-.38.08.34.34,0,0,0-.13.32v1.3a.5.5,0,0,0,.12.38.42.42,0,0,0,.33.13h14.7a.76.76,0,0,0,.43-.09.34.34,0,0,0,.13-.3V40.42a.41.41,0,0,0-.09-.28.48.48,0,0,0-.36-.11H39.59a4,4,0,0,1-2.08-.57,4.7,4.7,0,0,1-1.75-2c-.13-.28-.34-.78-.61-1.48s-.58-1.56-.94-2.54-.74-2.06-1.14-3.19S32.29,28,31.9,26.86s-.74-2.22-1.07-3.23-.6-1.9-.82-2.64-.44-1.44-.78-2.47-.72-2.19-1.15-3.47-.87-2.6-1.33-4l-1.33-4C25,5.85,24.6,4.7,24.26,3.68s-.59-1.85-.78-2.45a3.44,3.44,0,0,0-.24-.71.41.41,0,0,0-.38-.24.57.57,0,0,0-.37.15l-.37.36a5,5,0,0,1-.77.72,12.77,12.77,0,0,1-1.21.85,11.84,11.84,0,0,1-1.39.77,6.31,6.31,0,0,1-1.3.47.78.78,0,0,0-.4.23.43.43,0,0,0-.1.27.79.79,0,0,0,.13.37,3.67,3.67,0,0,0,.26.37,1.19,1.19,0,0,1,.2.65,2.21,2.21,0,0,1-.08.66c-.06.22-.11.42-.18.61s-.23.64-.44,1.24-.48,1.31-.8,2.16l-1,2.69c-.37,1-.71,1.91-1.07,2.86l-1,2.65-.76,2.06c-.21.55-.35.92-.4,1.09-.27.78-.61,1.69-1,2.72L9.6,27.49,8.3,30.86C7.86,32,7.46,33,7.1,33.93l-.93,2.34c-.24.62-.4,1-.48,1.17a7.29,7.29,0,0,1-.82,1.47,2.72,2.72,0,0,1-1,.84A3.31,3.31,0,0,1,2.42,40h-2a.52.52,0,0,0-.31.09.37.37,0,0,0-.14.3v1.35a.48.48,0,0,0,.09.35.35.35,0,0,0,.3.1c4.24,0,8.26-.1,12.56,0a.45.45,0,0,0,.33-.1.52.52,0,0,0,.12-.4v-1.3a.34.34,0,0,0-.13-.3.76.76,0,0,0-.43-.09H10.19a2.64,2.64,0,0,1-1.42-.32,1,1,0,0,1-.5-.92,4,4,0,0,1,.07-.57c0-.23.08-.46.1-.67s.17-.59.35-1.14l.68-2c.26-.76.54-1.55.84-2.38s.58-1.63.86-2.4l.74-2,.47-1.23Z" transform="translate(0 -0.27)"/>
    <path class="83fc28ab-ce38-4621-b23a-601f062621d6" d="M56.75,6.23a1.3,1.3,0,0,0-.48-.69,1.5,1.5,0,0,0-.86-.19c-3.68.11-7.06,0-10.69,0a.36.36,0,0,0-.29.09A6.07,6.07,0,0,0,44.36,7a.41.41,0,0,0,.07.26c0,.07.15.1.29.1h3.15a3.41,3.41,0,0,1,1.48.23.94.94,0,0,1,.53.65,4.42,4.42,0,0,1,.1,1q0,.39,0,1.21c0,.54,0,1.18,0,1.88s0,1.45,0,2.2S50,16,50,16.7v2.59c0,.15,0,.51,0,1.08s0,1.32,0,2.21,0,1.88-.07,3-.06,2.18-.09,3.3-.09,2.23-.15,3.29-.11,2-.18,2.88-.15,1.56-.24,2.09a7.7,7.7,0,0,1-.41,1.58,2.42,2.42,0,0,1-.81,1.1,2.58,2.58,0,0,1-1.51.41H43.79a.28.28,0,0,0-.25.09,6.15,6.15,0,0,0-.06,1.45c0,.39.07.48.46.46h12.9a.52.52,0,0,0,.39-.1.33.33,0,0,0,.08-.26V40.55a.41.41,0,0,0-.06-.26.35.35,0,0,0-.3-.1H54.37a2.14,2.14,0,0,1-1.29-.33,2,2,0,0,1-.72-1.15A11.7,11.7,0,0,1,52,36.42c0-.27,0-.69-.05-1.27s0-1.26,0-2,0-1.61,0-2.49,0-1.73,0-2.58V25.7c0-.71,0-1.3,0-1.76v-.83c0-.1,0-.42,0-1s0-1.22,0-2,0-1.73,0-2.7,0-1.94,0-2.93,0-1.88.05-2.71,0-1.52.07-2.07a8,8,0,0,1,.09-1,4,4,0,0,1,.53.88c.24.48.54,1.11.88,1.86s.71,1.59,1.1,2.5.79,1.84,1.19,2.79.77,1.85,1.13,2.71.68,1.63.95,2.3l.63,1.52c0,.09.16.39.37.9l.82,2c.33.83.7,1.74,1.11,2.74L62.16,32l1.25,3.09,1.09,2.69c.33.81.59,1.45.79,2s.31.77.34.82a2.72,2.72,0,0,0,.35.65.56.56,0,0,0,.42.28.61.61,0,0,0,.4-.22,2.86,2.86,0,0,0,.36-.5,4.31,4.31,0,0,0,.27-.52l.4-.9.88-2c.36-.83.75-1.72,1.18-2.69s.84-1.94,1.27-2.92S72,29.84,72.35,29s.66-1.51.9-2,.38-.86.43-1l.4-.87c.23-.51.52-1.17.9-2l1.24-2.73c.46-1,.92-2,1.41-3.09s1-2.1,1.43-3.11l1.27-2.74c.39-.83.71-1.5,1-2a8,8,0,0,1,.48-.92h.1a5.77,5.77,0,0,1,.07.89c0,.5,0,1.15,0,1.94S82,13,82,14s0,1.88,0,2.83V27.19c0,.87,0,1.79,0,2.76s0,1.93,0,2.87,0,1.81,0,2.6,0,1.45,0,2,0,.83,0,.95a3.84,3.84,0,0,1-.22,1.17,1,1,0,0,1-.48.55,1.6,1.6,0,0,1-.74.14H77a.49.49,0,0,0-.34.09.39.39,0,0,0-.07.28v1.19a.62.62,0,0,0,.07.34.41.41,0,0,0,.34.12H91.64a.48.48,0,0,0,.39-.12.5.5,0,0,0,.08-.34V40.55A.41.41,0,0,0,92,40.3a.35.35,0,0,0-.3-.1h-3a1.45,1.45,0,0,1-1.36-.65,4.15,4.15,0,0,1-.4-2.13c0-.18,0-.53,0-1.07s0-1.17,0-1.93,0-1.56,0-2.42,0-1.7,0-2.54,0-1.62,0-2.31,0-1.27,0-1.71V21.82c0-.71,0-1.53,0-2.47s0-1.92,0-2.93,0-2,.05-2.94,0-1.76,0-2.47,0-1.21,0-1.52A4.58,4.58,0,0,1,87,8.4a1.29,1.29,0,0,1,.48-.76,1.83,1.83,0,0,1,1.13-.28h2.27a.4.4,0,0,0,.34-.12.56.56,0,0,0,.07-.34V5.71a.48.48,0,0,0-.06-.26.27.27,0,0,0-.25-.1c-3,0-6.12.15-9.19.15a2.35,2.35,0,0,0-.75.09.65.65,0,0,0-.44.52,6.82,6.82,0,0,1-.37,1.06c-.22.54-.5,1.21-.85,2s-.73,1.66-1.14,2.59L77,14.56l-1.17,2.56c-.36.78-.66,1.44-.9,1.94s-.39.83-.45.95-.21.42-.44.94-.52,1.16-.86,2l-1.13,2.57-1.22,2.78c-.4.93-.79,1.79-1.15,2.59s-.68,1.45-.94,2a5.74,5.74,0,0,1-.56,1Z" transform="translate(0 -0.27)"/>
    <path class="a91c7a73-4244-41fc-b895-1c010c8b9ef3" d="M115.85,10.58a1.73,1.73,0,0,1,2.22.76,1.22,1.22,0,0,1-.66,1.45,1.88,1.88,0,0,1-2.09-.2A7.64,7.64,0,0,0,115.85,10.58Z" transform="translate(0 -0.27)"/>
    <path class="a91c7a73-4244-41fc-b895-1c010c8b9ef3" d="M110.76,21.95a7,7,0,0,0-.57,2,1.65,1.65,0,0,1-1.84-.09A1.41,1.41,0,0,1,108,22,1.67,1.67,0,0,1,110.76,21.95Z" transform="translate(0 -0.27)"/>
    <path class="a91c7a73-4244-41fc-b895-1c010c8b9ef3" d="M107.19,12.62a1.73,1.73,0,0,1,1.78.64,1.17,1.17,0,0,1-.58,1.69,9.06,9.06,0,0,0-2.26-.44C105.66,13.82,106.09,12.82,107.19,12.62Z" transform="translate(0 -0.27)"/>
    <path class="a91c7a73-4244-41fc-b895-1c010c8b9ef3" d="M117.43,19.54a5.57,5.57,0,0,0,2.15.76c.3.79-.22,1.55-1.22,1.74a1.56,1.56,0,0,1-1.87-1A1.32,1.32,0,0,1,117.43,19.54Z" transform="translate(0 -0.27)"/>
    <path class="d41f17d6-0889-4833-a5a0-206b0cd012cd" d="M115,17.78a1.59,1.59,0,0,1-1.58,1c-1.32,0-2.12-1.26-1.11-2.23a1.91,1.91,0,0,1,1.21-.42C114.44,16.15,115.23,16.81,115,17.78Z" transform="translate(0 -0.27)"/>
    <path class="4c9fb7eb-8602-4f48-9ed6-0a7db513bae8" d="M112.78,33.79s1.19,2.67,3.5-.28c.84-1.23,1.31-4.2.5-7.78a9.32,9.32,0,0,0-.63-2,8.45,8.45,0,0,0-1.1-1.93l-.06-.07h0a1.69,1.69,0,0,0-1.83-.68h0l.06.05h0c1.07.93,1.87,2.54,2.35,5a13.1,13.1,0,0,1-.26,6.5C114.61,34.14,113.75,34.4,112.78,33.79Z" transform="translate(0 -0.27)"/>
    <path class="4c9fb7eb-8602-4f48-9ed6-0a7db513bae8" d="M98,20.89s-2.64-1.86-.22-4.05c-.67.8-.75,1.57.15,2.27,1.38.9,3.48,1.14,6.21.8s4.62-1.28,5.56-2.43c1.27,1.71-1.38,3.3-4.61,4C102.18,22,99.6,21.89,98,20.89Z" transform="translate(0 -0.27)"/>
    <path class="4c9fb7eb-8602-4f48-9ed6-0a7db513bae8" d="M128.92,17.88c.88-1.35,0-2.22-1.9-2.78-3.88-.84-8.26.34-10,2.36-1.07-1.14-.36-2.44,2.09-3.52,3.36-1.36,7.33-1.33,9.28-.09C128.35,13.85,130.85,15.87,128.92,17.88Z" transform="translate(0 -0.27)"/>
    <path class="4c9fb7eb-8602-4f48-9ed6-0a7db513bae8" d="M109.39,4.89c.52-1.15,1.14-1.52,1.81-1.5a4.44,4.44,0,0,0-.88,2.22,10.32,10.32,0,0,0,1.05,6.54c.64,1,1.34,1.78,2.2,1.83a2.28,2.28,0,0,1-.34.34c-1.14.89-2.46.06-3.5-2.07h0a8.61,8.61,0,0,1-.49-1.41A9.52,9.52,0,0,1,109.39,4.89Z" transform="translate(0 -0.27)"/>
  </g>
</svg>
